#tb 0: 1/1000
0,          0,          0,        0,     3366, bf4e568217906ee4b58dc4707bee8ef6
0,         33,         33,        0,     3366, f823f8c7b6e47ba43215f3becd35208e
0,         66,         66,        0,     3366, 1d986d65b502e77764428e21e77503a6
0,        100,        100,        0,     3366, 73520382bc54d6aee165402518dd7b5d
0,        133,        133,        0,     3366, c84e943758f2d7e37126172728838640
0,        166,        166,        0,     3366, 1d4b298da98e4b66b31ad6874f726aa6
0,        200,        200,        0,     3366, e67748eeb3c818deb8b51d321cd16a9c
0,        233,        233,        0,     3366, 4d1514c63e669261beef9e35b04c241e
0,        266,        266,        0,     3366, 57705e2131e2129efbc68b74a1e0459c
0,        300,        300,        0,     3366, 681acf1b384856d6e544d8e7a79fc628
